PathFileType	4	(X/Y/Z)	Patient4_TMGait_0pt6_01_right_44.trc.trc
DataRate	CameraRate	NumFrames	NumMarkers	Units	OrigDataRate	OrigDataStartFrame	OrigNumFrames
83.832335329341	83.832335329341	6	33	mm	83.832335329341	36	       141
Frame#	Time	Sacral			L.Shoulder			Chest			R.Shoulder			Neck			R.ASIS			L.ASIS			R.Thigh.Superior			R.Thigh.Lateral			R.Thigh.Inferior			R.Patella			L.Thigh.Superior			L.Thigh.Lateral			L.Thigh.Inferior			L.Patella			L.Shank.Superior			L.Shank.Lateral			L.Shank.Inferior			R.Shank.Superior			R.Shank.Lateral			R.Shank.Inferior			R.Heel			R.Midfoot.Superior			R.Midfoot.Lateral			R.Toe			L.Heel			L.Midfoot.Lateral			L.Midfoot.Superior			L.Toe			L.Elbow			L.Wrist			R.Elbow			R.Wrist			
		X1	Y1	Z1	X2	Y2	Z2	X3	Y3	Z3	X4	Y4	Z4	X5	Y5	Z5	X6	Y6	Z6	X7	Y7	Z7	X8	Y8	Z8	X9	Y9	Z9	X10	Y10	Z10	X11	Y11	Z11	X12	Y12	Z12	X13	Y13	Z13	X14	Y14	Z14	X15	Y15	Z15	X16	Y16	Z16	X17	Y17	Z17	X18	Y18	Z18	X19	Y19	Z19	X20	Y20	Z20	X21	Y21	Z21	X22	Y22	Z22	X23	Y23	Z23	X24	Y24	Z24	X25	Y25	Z25	X26	Y26	Z26	X27	Y27	Z27	X28	Y28	Z28	X29	Y29	Z29	X30	Y30	Z30	X31	Y31	Z31	X32	Y32	Z32	X33	Y33	Z33	

36	53.337500000000	820.823268460078	1003.611810055425	462.097962853281	1005.584146853255	1430.772496238052	285.420373043903	1097.978349044171	1365.515219573375	453.354095523672	1000.601337502580	1438.937019299210	619.132488842172	973.220140548473	1491.637020763577	437.163567167436	1039.539863027513	945.750921240423	596.308347841864	1046.232607306170	954.156505874351	321.987701995070	1099.713850376755	750.263868353804	567.406437114570	1025.689526442494	635.224856372877	622.359660101420	1108.749631859956	589.936374739939	543.376660439532	1117.398362162499	501.268484327949	548.896266511821	1081.372240075002	733.631244829859	352.695833113987	998.366416737067	620.506817102279	280.431352636283	1081.550254430493	535.020965494411	342.874054831508	1072.214564143561	448.873005875729	339.424002242999	1000.954803834737	393.781499787236	331.264397597853	860.077390494366	356.768044924999	280.487220299813	839.080641230444	229.353765732805	335.737028042023	1095.367426057017	411.095801298328	552.747137596012	1030.589938074161	302.267794216656	612.050287617514	1077.904481786463	211.039032270157	547.731765110817	950.984299282914	44.000950993498	517.640185308376	1123.573695633807	98.037816291741	548.970932611461	1036.067511191771	37.717214075873	589.750620602078	1244.244762779081	41.491768123851	573.701616063081	644.952078592904	174.862687165889	371.553033802834	700.050175680013	121.870479322130	295.214323596814	804.042327798734	125.902701058864	316.838355237257	876.759927716090	29.971773418028	298.410840125805	1001.817914818293	1070.913311265244	182.852336896610	1195.146698856769	898.501292157535	212.042786086917	912.395328618923	1102.174869534780	732.982640673389	981.272115177303	850.570211143902	749.316930241608	
37	53.349428571429	820.546839066532	1004.049278647810	465.242614650656	1004.420794055852	1430.681865943484	286.815093043679	1097.461296111357	1366.204670241429	454.676486568769	1000.573563158331	1439.950010835089	620.495919927930	972.411210990810	1492.012039116390	438.512721762884	1039.616822015056	946.315348826050	598.836493910527	1045.474760046100	954.552265808127	324.719723915709	1098.241137533971	749.610280555505	570.510008514877	1022.527619440078	635.000026444097	624.508885646598	1105.566745509442	589.253241082389	545.724839077012	1113.208119374285	500.506470586152	550.546699800549	1085.353319967215	736.349047230464	355.817117018530	1006.834362223167	621.648746032193	281.881628621782	1091.897654398909	537.840474710520	345.059768919494	1083.933186240911	450.714479377021	340.892484611336	1011.393049544410	395.645710191501	332.240629666680	869.664894953029	362.991905323841	280.544193587851	844.989992196455	235.819655120929	334.989180633050	1090.653001513996	410.540014180775	554.130978454202	1025.165677648828	301.958831602365	613.041729577428	1071.781056217994	210.688937037151	548.300868706601	943.924271888896	43.938491154296	517.743757169732	1116.499204424500	97.996247083512	549.234762370464	1028.959646727836	37.657995596520	589.920294684208	1237.143477645747	41.418807946705	573.975511393744	649.434086364843	190.799944870367	369.002144419452	702.194040770606	134.128948535607	293.378808815616	806.269093365004	131.620877866758	316.077922509968	872.174827625302	28.821364006101	298.663767235530	1001.583983196604	1070.303644002150	186.262959796860	1186.431908338304	887.721351667329	212.929343506359	915.809315198346	1102.677141636732	736.456596322406	996.948948943397	854.820508768030	750.727161829580	
38	53.361357142857	820.072118540351	1004.402812302689	468.291628810192	1003.036601522013	1430.374058517110	288.117104701291	1096.853718855800	1366.725007522490	455.866576039345	1000.544953618958	1440.775053235768	621.817971600085	971.551651661675	1492.240581146797	439.757184928397	1039.537921877386	946.647987699627	601.207462434220	1044.382794479217	954.786065889629	327.332605850232	1096.559545137235	748.812639048814	573.512163975347	1019.289554991902	634.693960022593	626.549536356752	1102.306469750702	588.522407141396	547.967586926318	1108.972748002146	499.699223962364	552.125946789937	1089.083646679080	739.192925191914	358.833068239702	1015.024422367436	623.095677791290	283.372763353596	1101.758269656516	541.034108711800	347.469659257617	1095.299883018022	453.008110512169	342.729328633753	1021.665459563245	397.861535889070	333.496064171343	879.394750367844	369.096776003953	280.654948463216	851.299826334036	242.279958622856	334.447807693641	1085.885023025696	409.919010803431	555.446139541348	1019.658734246116	301.601590905860	613.965303526825	1065.585710996348	210.285552942081	548.817561093469	936.764712318045	43.861510445956	517.819983530654	1109.343872204053	97.894581677275	549.440711563448	1021.756112722341	37.584079870077	590.056531319635	1229.958120731993	41.272819879609	574.177660933199	654.760870362712	205.808071263982	366.503381987507	705.441409259598	146.031773201429	291.544700942548	809.303957387263	137.665764614206	315.407522766528	868.862408734236	28.091767080679	298.755134334843	1001.181034250693	1069.501590205666	189.345837366881	1176.991224560725	877.321328779439	213.476320227465	919.176610560332	1103.123588357801	739.993006917443	1012.563780934415	859.672897522230	752.050770847538	
39	53.373285714286	819.386593577040	1004.714779421763	471.199193432034	1001.489004414881	1429.916053622849	289.333316301242	1096.172047767182	1367.085578565043	456.931253251587	1000.536075208102	1441.441776992884	623.097253741804	970.669771536982	1492.369603564585	440.891443668487	1039.272150515424	946.808067212270	603.428015113741	1042.966580822063	954.891348317666	329.797882639964	1094.672752667220	747.949746725318	576.334915512892	1016.027678811750	634.369160078048	628.476223319733	1098.984690721987	587.780278594490	550.082088801370	1104.698644617574	498.889301858295	553.641460979603	1092.500170665772	742.179699549394	361.733940342494	1022.859975917598	624.875696536382	284.902404026955	1111.063749888612	544.610996826250	350.051998903649	1106.244433021610	455.762570361881	344.843067284684	1031.707824388224	400.432648921488	334.967564360303	889.141978577180	374.980757588347	280.862864958415	858.022730613537	248.561909120621	334.124356555985	1081.079806853628	409.275310031261	556.693338852883	1014.097154986542	301.240129918216	614.830616917815	1059.348096812336	209.866073150814	549.298269963697	929.537470024518	43.793037405898	517.888498827058	1102.140046332208	97.759861379547	549.608145459349	1014.492657220154	37.510604080588	590.170304202596	1222.720565427499	41.074824609791	574.325260386768	660.855252878870	219.318624997610	364.222416458133	709.823972432437	157.114615816268	289.811892772771	813.289840140783	143.823432794724	314.810481295191	867.283901443853	27.958616092836	298.605534541176	1000.454895500775	1068.570818604350	192.119482934252	1166.814191840083	867.489064269111	213.688160683334	922.617946630216	1103.504724196510	743.548664729458	1028.033236277479	865.066614680811	753.276558806394	
40	53.385214285714	818.484531510593	1005.031253596065	473.938166747671	999.838268677116	1429.388462581806	290.471434659690	1095.429618100154	1367.309494947610	457.879148256173	1000.560272641696	1441.994810634683	624.326872792889	969.786842301926	1492.453077698325	441.913613749788	1038.798247347819	946.864174830166	605.505852176586	1041.254031674225	954.919181549751	332.090623075282	1092.581073449870	747.086729574609	578.927144711896	1012.742978314813	634.075698349802	630.281184874095	1095.584716324068	587.052124520599	552.055436694144	1100.355806961996	498.111944804015	555.085549225749	1095.544739213431	745.331860256757	364.512484420364	1030.281295647950	627.015489152586	286.447063041510	1119.777808617492	548.583097102112	352.719352028085	1116.727649813871	458.994680501434	347.103444013298	1041.499521052090	403.357032930503	336.557410496940	898.813963724633	380.538201490184	281.199225813926	865.221319988916	254.476518468704	334.012696375000	1076.219588266154	408.648812977827	557.867809690082	1008.479383908535	300.912014092875	615.640459916772	1053.080022083973	209.464752872589	549.755707197863	922.271610193874	43.748583334280	517.963038804724	1094.915601420855	97.616975375888	549.755087526481	1007.200594899033	37.448831632682	590.270667422944	1215.457902737717	40.850295321888	574.436871965367	667.681811767372	230.797361581030	362.326070566102	715.390904760462	166.924136445258	288.279812492962	818.402170188929	149.837178783752	314.268616622126	867.922325055591	28.533267968626	298.137986928396	999.255506577869	1067.597951930906	194.608753185081	1155.909986865560	858.398079712463	213.583261704596	926.243707093859	1103.829290625225	747.075481953821	1043.301371576488	870.944413559236	754.383116058932	
41	53.397142857143	817.368557514029	1005.395491134964	476.500640957192	998.136834811768	1428.873663862656	291.540079697762	1094.636015715112	1367.429373591423	458.719153620990	1000.624754319101	1442.483221996311	625.498589103154	968.916279647134	1492.543445110716	442.828603268366	1038.107046703222	946.881454661457	607.442880589717	1039.284976488708	954.932499537125	334.189340556530	1090.281578120809	746.268801865642	581.260176961858	1009.396064827687	633.848843117883	631.953260577308	1092.060866917883	586.351179237289	553.877975915683	1095.885428605291	497.392971241325	556.437352584596	1098.167794159662	748.672658926520	367.156941614583	1037.236731136185	629.534825918615	287.966232800336	1127.886751811521	552.960722103601	355.356274927200	1126.732749764766	462.724837662529	349.358163865581	1051.054237619343	406.624117514069	338.147759543278	908.353959769425	385.656829412745	281.676852934461	872.999565486153	259.826516345544	334.089862132579	1071.257600895654	408.072695771811	558.959081802830	1002.778215171764	300.644315862311	616.390659869328	1046.775816574017	209.108658364885	550.196889723928	914.989739685289	43.734918821925	518.050525956966	1087.690610007869	97.485401505534	549.895012578854	999.903123984719	37.405559277447	590.363941061884	1208.189932826718	40.624146414140	574.529434262913	675.259877052776	239.786163328161	360.958302767299	722.212336165129	175.050388379546	287.034138352761	824.832755444552	155.424895995132	313.764113906995	871.226225449171	29.825549078990	297.289636422340	997.454665523718	1066.677896291096	196.838642563242	1144.317284832390	850.196189821278	213.192085203163	930.141654784414	1104.117344458752	750.524833304876	1058.337684790409	877.256590821135	755.335821147392	
